<svg width="35" height="26" viewBox="0 0 35 26" fill="none" xmlns="http://www.w3.org/2000/svg">
<path d="M28.04 0H6.96C3.12214 0 0 3.13214 0 6.98143V18.7321C0 22.5821 3.12214 25.7136 6.96 25.7136H28.04C31.8779 25.7136 35 22.5814 35 18.7321V6.98143C35 3.13214 31.8779 0 28.04 0ZM33.5714 18.7329C33.5714 21.795 31.09 24.2857 28.04 24.2857H6.96C3.91 24.2857 1.42857 21.7943 1.42857 18.7329V6.98143C1.42857 3.92 3.91 1.42857 6.96 1.42857H28.04C31.09 1.42857 33.5714 3.92 33.5714 6.98143V18.7329Z" fill="#FFE500"/>
<path d="M23.8286 12.5986L13.9322 6.80214C13.7122 6.67357 13.4386 6.67143 13.2165 6.79857C12.9943 6.92571 12.8572 7.16214 12.8572 7.41857V19.0107C12.8572 19.2664 12.9943 19.5036 13.2157 19.6307C13.3257 19.6936 13.4486 19.725 13.5715 19.725C13.6965 19.725 13.8207 19.6921 13.9322 19.6271L23.8286 13.8321C24.0472 13.7043 24.1822 13.4693 24.1822 13.2157C24.1822 12.9621 24.0479 12.7264 23.8286 12.5986ZM14.2857 17.7643V8.66429L22.0543 13.215L14.2857 17.7643Z" fill="#FFE500"/>
</svg>
